# xmcd
#
# Track frame offsets: 
#        150
#        15597
#        32110
#        47464
#        56930
#        73077
#        93102
#        108840
#        124775
#        139440
#        154352
#        163887
#        178810
#        191955
#        203387
#        222135
#        235225
#        246837
#        265870
#        286482
#
# Disc length: 4059 seconds
#
# Revision: 6
# Processed by: cddbd v1.5.2PL0 Copyright (c) Steve Scherf et al.
# Submitted via: ExactAudioCopy v1.0b3
#
DISCID=2b0fd914
DTITLE=Various Artist - Nejkrasnejsi country dueta
DYEAR=2003
DGENRE=Country
TTITLE0=M.Tucny and T.Linka - El Paso
TTITLE1=P.Bobek and M.Rottrova - S tim blaznem si nic nezacinej
TTITLE2=P.Kral and T.Linka] - Sedm spanelskych andelu
TTITLE3=N.Urbankova and J.Grossmann - Drahy muj
TTITLE4=V.Martinova and M.Tucny - Rodinne stesti
TTITLE5=P.Spaleny and Z.Rytir - Dite stesteny
TTITLE6=W.Matuska and O.Blechova - Mozna, ze mi mavas
TTITLE7=M.Tucny and Z.Rytir - Chtel bych byt medvidkem
TTITLE8=P.Brumer and H.Mlada - Country bal
TTITLE9=A.Hajek and M.Dufek - Takovy jses Ty
TTITLE10=P.Bobek and M.Vobornikova - Ptaci styl
TTITLE11=M.Hoffmann and T.Linka - Divnej smich
TTITLE12=J.Simek and J.Vycital - Zatracenej zivot
TTITLE13=P.Spaleny and M.Vobornikova - Mne se zda
TTITLE14=V.Martinova and M.Tucny - Bud nad veci
TTITLE15=T.Linka and H.Marsalkova - Jitro vchazi oknem
TTITLE16=N.Urbankova and K.Kahovec - Slecna sen
TTITLE17=J.Blazejovsky and H.Marsalkova - Dzinova laska
TTITLE18=M.Tucny and Z.Rytir - Kosmickej vandr
TTITLE19=W.Matuska and O.Blechova - Boty toulavy
EXTD=YEAR: 2003
EXTT0=
EXTT1=
EXTT2=
EXTT3=
EXTT4=
EXTT5=
EXTT6=
EXTT7=
EXTT8=
EXTT9=
EXTT10=
EXTT11=
EXTT12=
EXTT13=
EXTT14=
EXTT15=
EXTT16=
EXTT17=
EXTT18=
EXTT19=
PLAYORDER=
